<svg xmlns="http://www.w3.org/2000/svg" viewBox="0 0 268 96" role="img" aria-label="s3ctl">
  <defs>
    <linearGradient id="logo-bucket" x1="0" y1="0" x2="64" y2="64" gradientUnits="userSpaceOnUse">
      <stop offset="0" stop-color="#4bd8ff"/>
      <stop offset="1" stop-color="#18a8ff"/>
    </linearGradient>
    <linearGradient id="logo-pill" x1="0" y1="0" x2="0" y2="96" gradientUnits="userSpaceOnUse">
      <stop offset="0" stop-color="#151b25"/>
      <stop offset="1" stop-color="#0d121a"/>
    </linearGradient>
    <radialGradient id="logo-glow" cx="24%" cy="40%" r="42%">
      <stop offset="0" stop-color="#18a8ff" stop-opacity="0.30"/>
      <stop offset="1" stop-color="#18a8ff" stop-opacity="0"/>
    </radialGradient>
  </defs>

  <rect x="1" y="1" width="266" height="94" rx="22" fill="url(#logo-pill)"/>
  <rect x="1" y="1" width="266" height="94" rx="22" fill="url(#logo-glow)"/>
  <rect x="1.6" y="1.6" width="264.8" height="92.8" rx="20.4" fill="none" stroke="#2d3d52" stroke-opacity="0.7"/>

  <g transform="translate(20,16)">
    <g fill="none" stroke="url(#logo-bucket)" stroke-width="3" stroke-linecap="round" stroke-linejoin="round">
      <ellipse cx="32" cy="16" rx="14" ry="4.2"/>
      <path d="M18 16 L21.5 47 L42.5 47 L46 16"/>
      <path d="M19 25 L45 25" stroke-width="2.2" stroke-opacity="0.85"/>
      <path d="M20 34 L44 34" stroke-width="2.2" stroke-opacity="0.85"/>
    </g>
    <g fill="#f5b841">
      <circle cx="32" cy="39" r="2.8"/>
      <path d="M30.7 41 L33.3 41 L34.2 46.6 L29.8 46.6 Z"/>
    </g>
  </g>

  <text x="104" y="48" dominant-baseline="central" font-family="Inter, ui-sans-serif, system-ui, -apple-system, 'Segoe UI', Arial, sans-serif" font-size="42" font-weight="800" letter-spacing="-1">
    <tspan fill="#4bd8ff">s3</tspan><tspan fill="#f4f8ff">ctl</tspan>
  </text>
</svg>
